<svg width="162" height="161" viewBox="0 0 162 161" fill="none" xmlns="http://www.w3.org/2000/svg">
<g id="Frame">
<path id="Vector" d="M147.174 110.633L132.549 102.055L137.133 99.4153C140.844 97.2159 141.935 92.597 139.971 89.0779C137.788 85.5587 133.204 84.2391 129.712 86.2186L117.706 93.2569L106.574 86.8784C107.011 84.8989 107.229 82.6995 107.229 80.72C107.229 78.5205 107.011 76.541 106.574 74.5615L117.706 68.183L129.712 75.2213C130.803 75.8812 132.113 76.3211 133.422 76.3211C136.042 76.3211 138.661 75.0014 139.971 72.582C142.154 69.0628 140.844 64.2241 137.133 62.2446L132.549 59.6052L147.174 51.0273C150.666 48.8279 151.976 44.209 150.012 40.6899C147.829 36.9508 143.245 35.8511 139.753 37.8306L125.128 46.4085V41.1298C125.128 36.9508 121.854 33.6517 117.706 33.6517C113.559 33.6517 110.285 36.9508 110.285 41.1298V55.2063L99.1526 61.5847C96.0967 58.7254 92.3859 56.526 88.4569 55.2063V42.2295L100.462 35.1912C104.173 32.9918 105.264 28.373 103.3 24.8539C101.117 21.1148 96.5332 20.015 93.0408 21.9945L88.4569 24.6339V7.47819C88.4569 3.29923 85.1827 0 81.0354 0C76.8881 0 73.6139 3.29923 73.6139 7.47819V24.6339L69.0301 21.9945C65.5376 19.7951 60.7355 21.1148 58.7709 24.8539C56.5881 28.373 57.8978 33.2117 61.6086 35.1912L73.6139 42.2295V55.2063C69.4666 56.526 65.9742 58.5055 62.9182 61.5847L51.786 54.9863V40.9098C51.786 36.7309 48.5118 33.4317 44.3645 33.4317C40.2172 33.4317 36.943 36.7309 36.943 40.9098V46.1885L22.3183 37.6107C18.6076 35.4112 14.0237 36.7309 12.0592 40.47C9.87641 43.9891 11.1861 48.8279 14.8968 50.8074L29.5215 59.3852L24.9377 62.0246C21.4452 64.2241 20.1355 68.8429 22.1 72.3621C23.4097 74.7815 26.0291 76.1011 28.6484 76.1011C29.9581 76.1011 31.2678 75.8811 32.3592 75.0014L44.3645 67.9632L55.4967 74.3416C55.0602 76.3211 54.6236 78.5205 54.6236 80.5C54.6236 82.6994 54.8419 84.679 55.4967 86.6585L44.3645 93.0369L32.3592 85.9986C28.6484 83.7992 24.0645 85.1189 22.1 88.858C19.9172 92.3771 21.2269 97.2158 24.9377 99.1954L29.5215 101.835L14.8968 110.413C11.1861 112.612 10.0947 117.231 12.0592 120.75C13.3689 123.169 15.9882 124.489 18.6076 124.489C19.9172 124.489 21.2269 124.269 22.3183 123.389L36.943 114.811V120.09C36.943 124.269 40.2172 127.568 44.3645 127.568C48.5118 127.568 52.0043 124.269 52.0043 120.09V106.014L63.1365 99.4153C66.1924 102.275 69.9032 104.474 73.8322 105.794V118.77L61.8268 125.809C58.1161 128.008 57.0247 132.627 58.9892 136.146C61.172 139.885 65.7559 140.985 69.2483 139.005L73.8322 136.366V153.522C73.8322 157.701 77.1064 161 81.2537 161C85.401 161 88.6752 157.701 88.6752 153.522V136.806L93.259 139.445C94.3504 140.105 95.6601 140.545 96.9698 140.545C99.5891 140.545 102.208 139.225 103.518 136.806C105.701 133.287 104.391 128.448 100.681 126.469L88.6752 119.43V106.454C92.8225 105.134 96.315 103.154 99.3709 100.075L110.503 106.454V120.53C110.503 124.709 113.777 128.008 117.925 128.008C122.072 128.008 125.346 124.709 125.346 120.53V115.251L139.971 123.829C141.062 124.489 142.372 124.929 143.682 124.929C146.301 124.929 148.92 123.609 150.23 121.19C151.976 117.451 150.666 112.612 147.174 110.633ZM80.3806 92.1571C74.0505 92.1571 68.8118 86.8784 68.8118 80.5C68.8118 74.1216 74.0505 68.8429 80.3806 68.8429C86.7107 68.8429 91.9494 74.1216 91.9494 80.5C91.9494 86.8784 86.7107 92.1571 80.3806 92.1571Z" fill="url(#paint0_radial_576_1981)"/>
</g>
<defs>
<radialGradient id="paint0_radial_576_1981" cx="0" cy="0" r="1" gradientUnits="userSpaceOnUse" gradientTransform="translate(126.384 48.34) scale(136.762 137.806)">
<stop stop-color="#28CBE9"/>
<stop offset="1" stop-color="#0A4FBB"/>
</radialGradient>
</defs>
</svg>
